<svg version="1" xmlns="http://www.w3.org/2000/svg" width="12597.333" height="12597.333" viewBox="0 0 9448.000000 9448.000000"><path d="M7783 2214.1c-208.1 11.6-382.6 28.2-573.9 54.4-430.3 59.1-867.6 163.1-1279.2 304.3l-43.7 15-148.8-.8c-184.6-1-217.3-.3-278.4 6-187.2 19.4-354.6 84.2-500 193.6-42.3 31.8-69.1 55.3-111.6 97.8-31.2 31.3-50 51.9-72.1 79.3-44.5 55-76.7 104.9-107.9 167.1l-14.2 28.4-48.9 29.2c-385.4 230.8-735.5 487.4-1074.7 787.9-11 9.7-20.2 17.4-20.5 17.2-.2-.3-114.6-311.8-254.1-692.3l-253.6-691.7h-761.9l-686.2 1868c-377.5 1027.4-686.6 1869-686.9 1870.2l-.6 2.3h828.8l137.9-370c75.9-203.6 138.2-370.5 138.5-371 .4-.7 36.3-.9 98.7-.8l98.1.3-13.5 22.5c-44.1 73.3-95.2 161.9-136.5 237-30.7 55.8-80.3 148.9-79.6 149.6.2.1 8-9.3 17.3-20.9 78.3-97.7 190.8-225.9 321.4-366.4l20.6-22.1 180.4-.1 180.3-.1-1.4 2.2c-2.5 3.9-36.7 62-50.5 85.8-133 229.6-257.8 476.2-362.7 716.8-14.3 32.7-14 32-12.2 30.2.7-.8 6.7-9.2 13.2-18.5 15.5-22.5 44.1-62.6 68.5-96.1 155.9-214.4 349.5-457.8 555.4-698.2l19-22.2h387l134 370.1c73.7 203.5 134.3 370.5 134.6 371 .3.5 166.8.8 415.1.7l414.6-.3-305.5-832.9-305.4-833 3.4-3.3 3.3-3.4 15.7 10.5c129.9 86.7 293.5 103.7 438.6 45.5 17.7-7.1 48-22.2 65.1-32.4 136.5-81.8 223.6-223.7 236-384.4 1.3-17.2 1.3-54.6 0-72.1-4.7-63.5-20.2-121.6-47.8-179.3-5.6-11.8-6.3-14-5.1-15.1 10-9.4 186.7-152.2 187.4-151.4.1.1 2.6 5.5 5.5 11.8 28.2 62 75.4 142.5 117.3 199.7 95.7 130.9 257 295.2 485.7 494.9 67.6 59 129.9 111.6 231.1 195.1 185.2 153 306.5 267.4 359.6 339.3 73.9 100.1 92.6 201.6 52.2 283.7-24 48.7-74.4 97.8-131.2 127.8-34.9 18.4-72.3 29.9-120.2 36.7-14.5 2.1-18.7 2.2-133.5 2.6-65.2.2-380.6-.1-701-.7-320.3-.6-582.7-.7-583.1-.3-.6.5 264.3 752.3 268 760.9l1 2.2 568.3-.4c385.3-.2 574.7-.7 588.3-1.4 42-2.3 77.4-5.2 109.5-9.1 178.4-21.9 333-76.2 470.5-165.5 82.5-53.5 163.7-125.5 229.9-203.9 88.3-104.5 153.4-226.8 190.6-358.1 51.4-181.6 54.2-395.4 7.5-576-34.5-133.4-91.2-248.1-184.5-373.1-62.4-83.4-143.6-173-223-245.9-70.8-64.9-191.2-169-355-307-242.8-204.5-423-367.1-492.2-444.2-27.8-30.9-42.2-52.7-53.3-80.3-9.4-23.3-12.8-41.3-12.8-66.5 0-16.3.2-18.9 2.6-28 3.4-12.8 12.6-31.2 21.4-43 7.9-10.4 24.3-27.2 35.8-36.4 28-22.5 61.6-37.5 100-44.6 29-5.3-8.8-5 604.8-4.6l570.8.4-.7-366.4-.7-366.4 22.9-10.4c121.8-55.3 236.3-104.3 349.9-149.6 109.9-43.8 305.7-113.9 490.5-175.5 113.7-37.9 154.9-50.9 230.9-72.6 16.6-4.8 26.4-8 24.8-8.2-1.5-.2-2.5-.8-2.2-1.3.7-1-.2-1-21.5.2zM2765.4 4220.2c77.9 209.3 141.6 380.9 141.6 381.2 0 .4-9.1 11.1-20.3 23.9-38.9 44.5-119.2 139.5-143.2 169.5l-5 6.2h-237.4c-189.4 0-237.2-.3-236.9-1.3 9.1-26.3 358.5-962.1 358.9-961.4.4.7 64.4 172.5 142.3 381.9z"/><path d="M6817 2975.5V3363h643v2994h801v-76.3c0-41.9 2-695.4 4.5-1452.2 2.5-756.8 4.5-1396.1 4.5-1420.8V3363h625v-775H6817v387.5zM4554.5 6650c-11.1 3.6-22.3 14.5-26.5 25.7-8.3 22.1 2 47.4 23.3 57.4 20.2 9.4 44.9.2 55.1-20.6 10.9-22.4 2-49.3-20.1-60.2-6.8-3.3-8.4-3.7-16.7-4-7-.2-10.5.2-15.1 1.7zM5946.3 6649.4c-18.3 6-30.3 22.8-30.3 42.7 0 32.8 33.3 54.6 61.6 40.3 6.8-3.5 16.7-13.7 19.9-20.6 10.2-22.4.8-49.1-21.1-59.9-6-3-7.8-3.4-16.3-3.6-6.1-.2-11.1.2-13.8 1.1zM1579 6843.5V7032l34.3-.2 34.2-.3.3-188.3.2-188.2h-69v188.5zM3735.4 6656.5c-39.7 7.2-71.4 36.3-79.5 73-2.1 9.5-1.6 29.4.9 38.9 2.8 10.1 9.6 24.5 16.4 34.3 10.4 15.2 38.8 42.6 74.1 71.6 21.2 17.3 35.9 30.7 41.4 37.6 16 19.9 14.6 39.4-3.7 53.2-7.9 5.9-16.6 8.2-29.4 7.7-9.8-.3-10.8-.6-19.2-4.7-13.6-6.8-26.2-20.3-39-41.7-.9-1.6-3.9 0-30.7 16.1l-29.6 17.8 2.6 5.1c1.4 2.8 4.8 8.6 7.4 12.9 20.7 33.3 46.7 52.5 80.9 59.8 14.6 3.1 40.8 3.2 55.6.1 21.6-4.4 38.8-13.1 53.7-27.2 9.9-9.4 15.8-17.1 20.9-27.5 7.6-15.1 10.2-27.4 10.2-46.5 0-8-.5-17.2-1.2-20.5-4.6-21.2-13.6-37.8-31-56.8-8.6-9.4-16.6-16.6-43.5-39.3-59.5-50.4-67.4-58.6-68.5-72-1.5-17.8 20.8-30.2 42.4-23.6 14.5 4.4 29.5 16.4 41.9 33.5l2 2.7 25.5-22.6c14-12.4 25.6-23.2 25.8-23.9.5-2-26.6-28.9-36.1-35.9-15.1-11.2-33.1-19.1-50.6-22.1-10.1-1.8-29.9-1.8-39.7 0zM2146.7 6659.7c-.4.3-.7 22.8-.7 49.9v49.4l-17.2.2-17.3.3v58l17.2.3 17.3.2.2 106.8.3 106.7h68l.3-106.8.2-106.7h40v-59h-40v-100h-33.8c-18.6 0-34.2.3-34.5.7zM714.7 6846.4c-38.9 100.4-70.8 183.1-70.9 183.8-.2 1.1 6.5 1.3 36.1 1.3h36.5l14.7-37.5 14.8-37.5 74.9-.3 74.9-.2 13.3 35.2c7.3 19.4 13.9 36.5 14.7 38l1.4 2.8h72.1l-.6-2.2c-.3-1.3-31.9-84.1-70.3-184L856.5 6664h-71.2l-70.6 182.4zm130.7-21.3c13.1 33.6 23.6 61.2 23.3 61.5-.2.2-22 .3-48.3.2l-47.9-.3 24-61.2c13.2-33.7 24.2-61.3 24.6-61.3.3 0 11.2 27.5 24.3 61.1zM7222 6699v35h65v298l35.3-.2 35.2-.3.3-148.8.2-148.7h67v-70h-203v35zM1249.5 6753.1c-27.7 2.2-53.7 14.3-74.5 34.8-20.2 19.9-33.2 44.1-39.1 73-2.6 12.6-3.7 43-1.9 56.8 6.6 52.6 41.7 97.5 89.4 114.2 12.5 4.4 23.9 6.2 39.6 6.2 22.5 0 40.6-4.7 57.5-14.8 7-4.3 20.2-14.1 22.9-17.2 1.1-1.1 2.3-2.1 2.8-2.1.4 0 .8 6.3.8 14v14l34.3-.2 34.2-.3v-272l-34.2-.3-34.3-.2v29.2l-3.7-3.2c-17.3-14.5-34.3-23.9-51.1-28.4-8.4-2.2-12.9-2.9-28.2-4-2.5-.2-9 0-14.5.5zm40 63.4c39.8 7 64.3 43.5 59.6 88.8-2.2 20.5-9.6 37.1-22.1 49.6-26.6 26.6-71.2 27.9-98.6 2.8-12-11-19.6-24-23.6-40.5-3-12.2-3-32.2 0-44.4 9.9-40.6 44.2-63.3 84.7-56.3zM1876.5 6753.1c-34.2 3-63.4 24.9-73.5 54.9-3 9-3.9 28.7-1.6 38.2 5.3 22.5 21.2 41.9 48.4 58.7 4.4 2.7 15.7 8.9 25.3 13.7 20.6 10.3 26.8 14 33.2 20.3 6.1 5.8 8.7 10.8 8.7 16.6 0 5.5-1 7.7-5.8 12.8-7.1 7.4-22.6 10.1-35.8 6.2-12.3-3.6-27.4-12.6-37.5-22.6-3.4-3.2-6.3-5.9-6.4-5.9-.9 0-41.5 45-41.5 46 0 1.9 22.1 23.4 28.1 27.3 13.4 8.7 28.1 14.5 43.5 17.2 11.5 2 35.1 2 46.4.1 38.3-6.8 66.9-32.8 73-66.7.7-3.5 1.2-11.1 1.2-16.9-.1-35-16.6-58.1-57.7-80.7-4.9-2.8-18.5-9.8-30-15.6-25-12.6-28.6-15.6-29.3-23.9-.5-6.8 2.2-11.1 9.3-14.7 4.2-2.2 6.2-2.6 13.5-2.5 13.7.1 24.3 5 39.8 18.3l8 7 21.2-21.5 21.1-21.5-4-4.8c-24.4-29.2-59.1-43.4-97.6-40zM2508.2 6753.1c-34 2.5-62.7 15.6-86.6 39.5-20.5 20.4-32.9 44-38.8 73.7-2.9 14.8-3.2 44.1-.5 58.7 5 26.7 17.2 50.9 35.5 70.1 25 26.3 57.1 40.7 95 42.7 50.3 2.7 87.6-9.5 116.8-38.3 10.3-10.2 18.2-20.2 16.8-21.4-.5-.5-13.5-6.7-28.8-13.9l-28-13.1-4.3 4c-17.2 15.8-40.4 23.8-65.8 22.6-15.2-.8-22.6-2.6-34.4-8.4-17.6-8.7-30.6-24.7-36-44.3-1.2-4.1-2.1-8-2.1-8.7 0-1 21.7-1.3 109.6-1.3h109.7l-.6-18.3c-.6-19.5-1.4-25.7-5.2-40.7-11.4-45.2-44.3-80.9-88-95.6-18.4-6.1-42.7-8.9-64.3-7.3zm37.7 61c13.2 3.3 23.3 9.1 33.7 19.4 7.6 7.5 9.8 10.4 13.3 17.6 2.2 4.7 4.1 8.9 4.1 9.2 0 .4-33.1.7-73.6.7h-73.5l4.1-7.8c2.2-4.2 6.3-10.8 9.2-14.6 16.7-22.2 51.2-32.4 82.7-24.5zM2917.6 6753.2c-18 2.2-35.5 14.4-45.8 31.8l-3.7 6.4-.3-16-.3-15.9h-60v272l34.2.3 34.2.2.4-79.2c.4-83 .7-89.4 5.2-106.9 3.6-14.2 12.4-26.7 21.5-30.8 6.1-2.8 12.5-2.6 20.7.4 3.7 1.4 7.2 2.7 7.6 2.8.5.1 5.6-13 11.3-29.2 8-22.4 10.2-29.6 9.2-30.2-2.8-1.7-17.6-5.8-22.3-6.2-2.7-.2-8.1 0-11.9.5zM3154.5 6753.1c-30.9 3-56.3 19.6-69.1 45.4-5.9 11.9-7.7 20.9-7.1 35 .8 20.5 7.5 34.5 24.6 51.5 13.2 13.1 23.2 19.8 51.1 34 29.5 15 38.7 22.4 41 32.7 2.1 8.9-4.2 18.4-14.8 22.3-7 2.7-18.7 2.9-26.8.5-12.7-3.7-28.1-13.2-37.9-23.3-2.8-2.9-5.3-5.2-5.6-5.2-.9 0-41.9 45-41.9 46 0 1.6 17.4 19.1 23.8 24 9.5 7.3 26.8 15.5 38.7 18.5 17.8 4.6 45.1 4.8 62.5.7 33.9-8.2 58.6-31.7 65.6-62.7 2.6-11.2 2.4-29.2-.5-40-3.7-14.1-9.2-23.7-20.1-34.6-12.5-12.6-24.6-20.4-56.7-36.7-27.7-14-33.3-17.5-36.3-22.5-4.7-7.7-.8-17.1 9-21.4 5.6-2.5 20.1-2.2 27.3.6 7.2 2.8 18.2 10.1 26.3 17.4l6.1 5.6 21.3-21.4 21.3-21.3-3-3.9c-1.7-2.1-6.6-7.2-11-11.4-23-22.3-54.2-32.9-87.8-29.8zM4907.2 6753.1c-24.6 2.2-47.4 12.5-66.9 30.3l-6.2 5.7-.3-14.8-.3-14.8-34.2-.3-34.3-.2v273l34.3-.2 34.2-.3.6-77.5c.5-73.3.7-78 2.6-87 5.1-23.2 15.7-38.3 32.6-46.4 27-12.9 54.7-2.1 63.7 24.9 5.2 15.7 5.3 16.3 5.9 104l.6 82h68l.6-75.5c.7-89.6 1-92.7 10.5-111 6.7-12.9 17.8-22.4 31.4-27.1 8.5-2.9 23.8-3.2 32.1-.6 12.4 3.7 20.9 12.5 25.4 25.9 5.6 17 5.8 20.3 6.2 108.1l.5 80.7 34.1-.2 34.2-.3.3-76.5c.4-116.4-1.1-136.2-12.4-158-11-21.4-33.9-37.6-59.9-42.5-11.5-2.2-30.4-2.2-41.9 0-26 4.8-50.4 19.9-66 40.6l-4.4 5.8-5.1-7.9c-7.3-11.3-15.1-19.3-25.3-26-17.5-11.5-37.1-16-60.6-13.9zM5490.8 6753.1c-26.4 2.3-48.1 12.1-68.3 31l-6.5 6.1V6759h-68v273h67.8l.5-72.8c.5-74 .9-82.5 4.7-97.7 7.6-30.7 33.6-50.2 61-45.6 21.1 3.4 32.7 17.2 37.7 44.4 1.4 7.9 1.7 20.4 2.2 90.2l.6 81h68l.6-76c.6-76.3.8-81.7 4.4-95.7 5.9-22.6 22-38.8 43.2-43.3 8.5-1.8 14-1.8 22.4-.1 17.6 3.8 27.1 14.6 32.2 36.8 2 9 2.1 12.3 2.6 93.8l.6 84.5 34.3.3 34.2.2v-91.4c0-56.4-.4-95.4-1-101.7-3-29.1-9.2-44.8-23.5-59.5-19.1-19.6-46.1-28.8-77-26.4-32.2 2.6-57.2 16.3-79.3 43.5-3 3.7-3.4 3.9-4.5 2.2-.7-1-3-4.6-5.2-8-5.4-8.4-15.5-18.5-24.2-24.1-17.1-11-36.8-15.5-59.5-13.5zM6298.5 6752.7c-11.8.7-27.7 5-39 10.6-7.3 3.6-19.9 11.7-28 18.1l-6 4.7-.3-13.6-.3-13.5-34.2.2-34.2.3v272h68l.6-76c.6-80 .8-83.5 5.5-97.4 3.8-11.5 8.2-18.8 15.8-26.9 11.9-12.5 27-17.9 43.3-15.4 9.8 1.6 15.1 4 21.4 9.8 8.5 8 11.9 15.3 14.6 31.4 1.4 8 1.7 22.5 2.2 92l.6 82.5h68l.3-95c.2-64.5-.1-97.7-.8-103.5-3.2-24.8-11.4-41.9-26.7-55.9-19-17.4-43.5-25.9-70.8-24.4zM6669.5 6753c-17 1.4-30 5.2-45.5 13.1-35 18-59.1 51.3-67.7 93.4-2.6 12.9-2.6 51.1 0 64 5.6 27.9 17.7 50.6 37.7 70.5 25.5 25.6 53.7 37.1 90.5 37.1 32.4 0 56.4-8.9 77.4-28.6l5.4-5-.7 11.5c-1.7 25.7-5.3 36.8-15.6 47-13.9 13.6-36.3 20.1-64.9 18.7-23.5-1.2-40.3-7.3-52.6-19.2l-4.6-4.5h-75.8l1.4 4c2.7 7.6 9.2 20.7 13.4 26.8 20.5 30.3 50.6 47.7 92.8 53.8 17.8 2.6 50.9 2.4 67.3-.4 21-3.6 36.3-8.9 50.4-17.5 35.2-21.3 51.4-51.5 55.6-103.2.8-9.7 1-51.4.8-134.5l-.3-120.5-33.7-.3-33.8-.2v30.1l-7.2-6.2c-26.4-22.7-56.2-32.6-90.3-29.9zm51 67.3c23 7.5 40.3 25.8 46.7 49.4 3 11.3 3 34.4-.1 45.8-5.6 20.8-18.1 36.4-36.6 45.5-11.8 5.9-18.8 7.4-33.5 7.4-14.9-.1-23.1-1.8-34.5-7.4-18.4-9-32.7-26.5-38.1-46.5-2.5-9.4-3-29.4-1-39.6 5.2-25.3 23.6-46.6 47.2-54.3 9.1-3 13.7-3.5 27.9-3.2 11.8.3 15.2.7 22 2.9zM7682.9 6753.1c-48.5 3.3-89 29.8-112.8 73.9-5.1 9.6-11.4 28.7-13.7 41.5-2.7 15.3-2.5 43.5.4 58.3 4.3 21.4 12.3 39.6 24.8 56.2 25.2 33.5 61.6 52.5 105.1 54.8 50.3 2.7 88.1-9.7 116.9-38.3 10.4-10.3 18.1-20.2 16.8-21.4-.5-.5-13.4-6.7-28.8-13.9l-27.9-13.1-4.8 4.3c-10.3 9.2-22.8 16-36.8 19.8-10.5 2.9-36.2 3.1-46.6.4-20.9-5.4-37.2-18.2-46.9-36.6-3.1-5.8-7.6-19.4-7.6-22.7 0-1 21.7-1.3 109.6-1.3h109.7l-.6-18.3c-.7-25.7-4.3-43.4-12.6-62.8-10.1-23.4-29-45.5-50.7-59.4-25.3-16.2-58.4-23.8-93.5-21.4zm37 61c14.8 3.7 29.6 12.9 38.9 24.2 4.1 5 10.3 15.8 11.7 20.4l.6 2.3h-147.3l4.2-7.8c5.6-10.3 13.7-20.9 19.8-25.5 19.4-14.7 47-20 72.1-13.6zM8100.9 6753.1c-32.4 2.6-62 18.2-83.3 43.8-24.5 29.4-34.7 61.5-33.3 104.9 1.2 37.2 11.1 63.9 34 91 25.1 29.8 57.8 45.2 95.8 45.3 29.2 0 52.3-8.4 75-27.3l8.4-7 .3 14.1.3 14.1 34.2-.2 34.2-.3v-272l-34.2-.3-34.3-.2v29.2l-7.7-6.5c-26.7-22.2-55.5-31.4-89.4-28.6zm37.5 62.9c30.1 4.4 53 26.2 60.2 57.5 2.7 11.6 2.5 32.9-.5 45-9.3 38.2-43.1 61.8-81 56.5-16.3-2.2-28.2-8.1-40.1-20-16.3-16.1-23.2-34-23.2-60 0-25.3 6.9-43.7 22.3-59.2 16.1-16.3 38.1-23.3 62.3-19.8zM8579.5 6753.1c-18.1 1.4-37.1 7.8-51.1 17.1-7.9 5.3-22.3 17.5-22.6 19.2-.1.6-.5-5.9-.8-14.4l-.5-15.5-34.3-.3-34.2-.2.2 136.2.3 136.3h68l.6-75.5c.6-75.8.8-81 4.4-95.5 9-35.6 44.5-55 74.1-40.5 12.4 6.1 20.7 19.5 24.6 40 .8 4.7 1.4 30 1.7 89l.6 82.5 34.3.3 34.2.2v-64.2c0-65.6.8-86.7 3.6-101.8 5.1-27.8 23.6-46.8 48.6-50.2 25.2-3.4 43.3 8.6 49.3 32.7 3.6 14.6 3.8 19.5 4.4 101.5l.6 81.5h68V6938c0-99.4-.2-104.7-5.1-124-7.5-29.7-32.8-52.6-65.9-59.5-9.4-2-30.7-2.3-40.5-.6-25.9 4.5-50.8 19.2-66.3 39.2-5.2 6.6-6.4 7.6-7.2 6.3-21.2-34.8-49.5-49.5-89-46.3zM4000 6760.1c0 1.7 96.1 269.2 97.3 270.7.7.9 5.9 1.2 21.9 1l20.9-.3 29.9-77c22.2-57.2 30.1-76.5 30.7-75 .4 1.1 13.6 35.7 29.3 77l28.6 75h43.6l48.9-135.4c26.9-74.5 48.9-135.8 48.9-136.3 0-.4-15-.8-33.4-.8h-33.4l-5.4 15.2c-3 8.4-15.1 42.4-26.9 75.5-11.8 33.2-21.6 60.3-21.9 60.3-.3 0-11.8-29.4-25.4-65.3-13.7-35.8-26.7-69.8-28.9-75.5l-3.9-10.2h-39.9l-1.6 3.7c-.8 2.1-14.1 36.2-29.5 75.8-15.3 39.6-28.3 72.3-28.7 72.8-.4.4-12.8-33.6-27.7-75.5l-26.9-76.3-33.3-.3c-24.1-.2-33.2.1-33.2.9zM4534 6895.5V7032l34.3-.2 34.2-.3v-272l-34.2-.3-34.3-.2v136.5zM5924.5 6760.2c-.3.7-.4 62-.3 136.3l.3 135h68l.3-136.3.2-136.2h-34c-26.3 0-34.2.3-34.5 1.2z"/></svg>